<svg xmlns="http://www.w3.org/2000/svg" width="1200" height="630" viewBox="0 0 1200 630"><rect width="1200" height="630" fill="#f5f3ed"/><rect x="760" y="65" width="370" height="500" rx="100" fill="#183c38"/><g stroke="#86c5ae" fill="none" stroke-width="2"><path d="M800 295l80-100 85 125 120-95-45 190-120 65-120-185 165 25 75 95M880 195l205 30M920 480l-40-285"/></g><g fill="#e4eccb"><circle cx="800" cy="295" r="9"/><circle cx="880" cy="195" r="10"/><circle cx="1085" cy="225" r="9"/><circle cx="1040" cy="415" r="9"/><circle cx="920" cy="480" r="10"/></g><circle cx="965" cy="320" r="19" fill="#f1b580"/><text x="70" y="104" fill="#116e5e" font-family="sans-serif" font-size="22" letter-spacing="4">ECONOMÍA · DATOS · IDEAS</text><g fill="#183c38" font-family="Georgia,serif" font-size="70"><text x="70" y="240">Conectar para</text><text x="70" y="325">comprender.</text></g><text x="70" y="440" fill="#183c38" font-family="sans-serif" font-size="29">Sergio Gevatschnaider</text><text x="70" y="490" fill="#536965" font-family="sans-serif" font-size="22">Artículos · Cursos · Simulaciones · ES / EN</text></svg>
